<svg xmlns="http://www.w3.org/2000/svg" width="240" height="300" viewBox="0 0 240 300" role="img" aria-label="Floating astronaut waving hello">
<defs>
<radialGradient id="visorG" cx="35%" cy="30%" r="90%">
  <stop offset="0" stop-color="#38BDF8"/>
  <stop offset="0.5" stop-color="#0E7490"/>
  <stop offset="1" stop-color="#0B1030"/>
</radialGradient>
<linearGradient id="suitG" x1="0" y1="0" x2="0" y2="1">
  <stop offset="0" stop-color="#F8FAFC"/><stop offset="1" stop-color="#CBD5E1"/>
</linearGradient>
</defs>
<g stroke-linecap="round">
  <path d="M 214 8 C 200 70, 186 96, 166 122" fill="none" stroke="#7DF9FF" stroke-width="2" stroke-dasharray="5 6" opacity="0.75">
    <animate attributeName="stroke-dashoffset" from="0" to="-44" dur="3.2s" repeatCount="indefinite"/>
  </path>
  <circle cx="30" cy="52" r="1.8" fill="#E0E7FF"><animate attributeName="opacity" values="0.15;1;0.15" dur="2.8s" repeatCount="indefinite"/></circle>
  <circle cx="204" cy="196" r="1.8" fill="#7DF9FF"><animate attributeName="opacity" values="1;0.15;1" dur="3.4s" repeatCount="indefinite"/></circle>
  <circle cx="26" cy="236" r="1.8" fill="#A78BFA"><animate attributeName="opacity" values="0.15;1;0.15" dur="2.2s" repeatCount="indefinite"/></circle>
  <circle cx="120" cy="18" r="1.5" fill="#E0E7FF"><animate attributeName="opacity" values="1;0.2;1" dur="4s" repeatCount="indefinite"/></circle>
  <circle cx="60" cy="130" r="1.5" fill="#E0E7FF"><animate attributeName="opacity" values="0.2;1;0.2" dur="3.1s" repeatCount="indefinite"/></circle>

  <g>
    <animateTransform attributeName="transform" type="translate" values="0 0; 0 -12; 0 0" dur="5.2s" repeatCount="indefinite" calcMode="spline" keyTimes="0;0.5;1" keySplines="0.45 0 0.55 1;0.45 0 0.55 1"/>
    <g transform="rotate(-4 120 170)">
      <animateTransform attributeName="transform" type="rotate" values="-4 120 170; 4 120 170; -4 120 170" dur="7s" repeatCount="indefinite" calcMode="spline" keyTimes="0;0.5;1" keySplines="0.45 0 0.55 1;0.45 0 0.55 1"/>

      <!-- speech bubble -->
      <g opacity="0">
        <animate attributeName="opacity" values="0;0;1;1;0;0" keyTimes="0;0.55;0.6;0.85;0.9;1" calcMode="discrete" dur="7.5s" repeatCount="indefinite"/>
        <rect x="24" y="52" width="92" height="30" rx="15" fill="#0D1117" stroke="#22D3EE" stroke-opacity="0.7"/>
        <path d="M 88 82 l 8 12 l 2 -12 z" fill="#0D1117" stroke="#22D3EE" stroke-opacity="0.7"/>
        <text x="70" y="72" text-anchor="middle" font-family="'Courier New',ui-monospace,Menlo,Consolas,monospace" font-size="12.5" fill="#7DF9FF">hello() &#128075;</text>
      </g>

      <!-- backpack -->
      <rect x="76" y="128" width="88" height="74" rx="16" fill="#94A3B8" stroke="#475569" stroke-width="2.5"/>
      <!-- waving arm (behind body, raised) -->
      <g>
        <animateTransform attributeName="transform" type="rotate" values="-14 158 150; 16 158 150; -14 158 150" dur="1.9s" repeatCount="indefinite" calcMode="spline" keyTimes="0;0.5;1" keySplines="0.45 0 0.55 1;0.45 0 0.55 1"/>
        <path d="M 156 150 C 176 138, 188 122, 192 100" fill="none" stroke="url(#suitG)" stroke-width="17"/>
        <path d="M 156 150 C 176 138, 188 122, 192 100" fill="none" stroke="#475569" stroke-width="17" opacity="0"/>
        <path d="M 156 150 C 176 138, 188 122, 192 100" fill="none" stroke="#64748B" stroke-width="19" stroke-opacity="0.35"/>
        <circle cx="193" cy="96" r="11" fill="url(#suitG)" stroke="#475569" stroke-width="2.5"/>
      </g>
      <!-- left arm -->
      <path d="M 92 152 C 74 162, 64 176, 62 194" fill="none" stroke="#64748B" stroke-opacity="0.35" stroke-width="19"/>
      <path d="M 92 152 C 74 162, 64 176, 62 194" fill="none" stroke="url(#suitG)" stroke-width="17"/>
      <circle cx="61" cy="198" r="11" fill="url(#suitG)" stroke="#475569" stroke-width="2.5"/>
      <!-- legs -->
      <path d="M 104 214 C 100 234, 98 246, 96 258" fill="none" stroke="url(#suitG)" stroke-width="19"/>
      <path d="M 136 214 C 140 234, 142 246, 146 258" fill="none" stroke="url(#suitG)" stroke-width="19"/>
      <rect x="84" y="252" width="26" height="16" rx="8" fill="#94A3B8" stroke="#475569" stroke-width="2.5"/>
      <rect x="132" y="252" width="26" height="16" rx="8" fill="#94A3B8" stroke="#475569" stroke-width="2.5"/>
      <!-- torso -->
      <rect x="88" y="128" width="64" height="94" rx="26" fill="url(#suitG)" stroke="#475569" stroke-width="2.8"/>
      <rect x="102" y="158" width="36" height="26" rx="6" fill="#0D1430" stroke="#475569" stroke-width="2"/>
      <circle cx="111" cy="166" r="3" fill="#F87171"><animate attributeName="opacity" values="1;0.2;1" dur="1.3s" repeatCount="indefinite"/></circle>
      <circle cx="121" cy="166" r="3" fill="#4ADE80"><animate attributeName="opacity" values="0.2;1;0.2" dur="1.7s" repeatCount="indefinite"/></circle>
      <rect x="105" y="174" width="30" height="4" rx="2" fill="#22D3EE" opacity="0.8">
        <animate attributeName="width" values="10;30;10" dur="3.4s" repeatCount="indefinite"/>
      </rect>
      <!-- helmet -->
      <circle cx="120" cy="96" r="37" fill="url(#suitG)" stroke="#475569" stroke-width="2.8"/>
      <circle cx="120" cy="98" r="27" fill="url(#visorG)" stroke="#334155" stroke-width="2.4"/>
      <ellipse cx="110" cy="88" rx="8" ry="5" fill="#E0F2FE" opacity="0.65" transform="rotate(-24 110 88)"/>
      <clipPath id="visorClip"><circle cx="120" cy="98" r="27"/></clipPath>
      <g clip-path="url(#visorClip)">
        <rect x="86" y="70" width="10" height="70" fill="#E0F2FE" opacity="0.3" transform="skewX(-20)">
          <animateTransform attributeName="transform" type="translate" from="-40 0" to="110 0" dur="4.2s" repeatCount="indefinite" additive="sum"/>
        </rect>
      </g>
      <!-- antenna -->
      <line x1="120" y1="59" x2="120" y2="46" stroke="#475569" stroke-width="2.5"/>
      <circle cx="120" cy="43" r="4" fill="#F472B6"><animate attributeName="opacity" values="1;0.25;1" dur="1.1s" repeatCount="indefinite"/></circle>
    </g>
  </g>
</g>
</svg>